<?xml version="1.0" encoding="utf-8"?>
<!-- Generator: Adobe Illustrator 16.0.0, SVG Export Plug-In . SVG Version: 6.00 Build 0)  -->
<!DOCTYPE svg PUBLIC "-//W3C//DTD SVG 1.1//EN" "http://www.w3.org/Graphics/SVG/1.1/DTD/svg11.dtd">
<svg version="1.1" id="레이어_1" xmlns="http://www.w3.org/2000/svg" xmlns:xlink="http://www.w3.org/1999/xlink" x="0px"
	 y="0px" width="96px" height="96px" viewBox="0 0 96 96" enable-background="new 0 0 96 96" xml:space="preserve">
<path fill="none" stroke="#000000" stroke-width="10" stroke-miterlimit="10" d="M59.376,84.182c5.604,0,26.005,0.191,31.399,0
	c8.975-0.316-7-33.563-7-33.563c5.205-3.749,3.409-10.66,3.409-10.66c-0.277-5.13-5.67-9.713-14.445-9.713
	c-8.774,0-12.559,6.983-12.49,10.919c0.045,2.608,1.078,7.469,5.535,10.107C65.784,51.271,50.591,84.182,59.376,84.182z"/>
<path fill="none" stroke="#000000" stroke-width="10" stroke-miterlimit="10" d="M44.621,44.901c0,0,20.248,42.9,8.186,42.9
	c-5.868,0-36.912,0-42.402,0C-1.692,87.801,18.2,44.4,18.2,44.4s-6.363-3.914-6.6-13.4c-0.237-9.486,8.4-19.6,19.972-19.6
	C43.6,11.4,52.601,22.042,52.601,31S44.621,44.901,44.621,44.901z"/>
</svg>
