<?xml version="1.0" encoding="utf-8"?>
<!-- Generator: Adobe Illustrator 16.0.0, SVG Export Plug-In . SVG Version: 6.00 Build 0)  -->
<!DOCTYPE svg PUBLIC "-//W3C//DTD SVG 1.1//EN" "http://www.w3.org/Graphics/SVG/1.1/DTD/svg11.dtd">
<svg version="1.1" id="레이어_1" xmlns="http://www.w3.org/2000/svg" xmlns:xlink="http://www.w3.org/1999/xlink" x="0px"
	 y="0px" width="96px" height="96px" viewBox="0 0 96 96" enable-background="new 0 0 96 96" xml:space="preserve">
<line fill="#FFFFFF" stroke="#000000" stroke-width="10" stroke-miterlimit="10" x1="0" y1="10.7" x2="57.6" y2="10.7"/>
<line fill="#FFFFFF" stroke="#000000" stroke-width="10" stroke-miterlimit="10" x1="0" y1="30.093" x2="57.6" y2="30.093"/>
<line fill="#FFFFFF" stroke="#000000" stroke-width="10" stroke-miterlimit="10" x1="0" y1="49.7" x2="42.4" y2="49.7"/>
<path fill="#FFFFFF" stroke="#000000" stroke-width="10" stroke-miterlimit="10" d="M59.2,80.25c5.199,0,17.66-65.667,17-71.442"/>
<path stroke="#000000" stroke-width="10" stroke-miterlimit="10" d="M59.974,73.392c2.207,3.152,0.319,8.147-2.309,10.126
	c-3.523,2.652-8.098,1.858-10.305-1.294c-2.208-3.151-1.175-7.686,2.309-10.125C53.151,69.658,57.767,70.239,59.974,73.392z"/>
<path fill="#FFFFFF" stroke="#000000" stroke-width="10" stroke-miterlimit="10" d="M78.632,12.711
	c5.486,3.445,16.542,9.349,22.966,9.641"/>
<path fill="#FFFFFF" stroke="#000000" stroke-width="10" stroke-miterlimit="10" d="M75.329,31.777
	c5.486,3.445,14.492,7.716,20.916,8.008"/>
</svg>
