<?xml version="1.0" encoding="utf-8"?>
<!-- Generator: Adobe Illustrator 16.0.0, SVG Export Plug-In . SVG Version: 6.00 Build 0)  -->
<!DOCTYPE svg PUBLIC "-//W3C//DTD SVG 1.1//EN" "http://www.w3.org/Graphics/SVG/1.1/DTD/svg11.dtd">
<svg version="1.1" id="레이어_1" xmlns="http://www.w3.org/2000/svg" xmlns:xlink="http://www.w3.org/1999/xlink" x="0px"
	 y="0px" width="96px" height="96px" viewBox="0 0 96 96" enable-background="new 0 0 96 96" xml:space="preserve">
<line fill="#FFFFFF" stroke="#000000" stroke-width="10" stroke-miterlimit="10" x1="0" y1="43.008" x2="58.2" y2="43.008"/>
<line fill="#FFFFFF" stroke="#000000" stroke-width="10" stroke-miterlimit="10" x1="0" y1="62.008" x2="52" y2="62.008"/>
<line fill="#FFFFFF" stroke="#000000" stroke-width="10" stroke-miterlimit="10" x1="0" y1="81.607" x2="32.4" y2="81.607"/>
<path fill="#FFFFFF" stroke="#000000" stroke-width="10" stroke-miterlimit="10" d="M59.2,86.104c5.199,0,17.66-68.134,17-74.126"/>
<path stroke="#000000" stroke-width="10" stroke-miterlimit="10" d="M59.974,79.217c2.207,3.152,0.319,8.147-2.309,10.126
	c-3.523,2.652-8.098,1.858-10.305-1.294c-2.208-3.151-1.175-7.686,2.309-10.125C53.151,75.483,57.767,76.064,59.974,79.217z"/>
<path fill="#FFFFFF" stroke="#000000" stroke-width="10" stroke-miterlimit="10" d="M78.632,16.028
	c5.486,3.574,16.542,9.7,22.966,10.003"/>
<path fill="#FFFFFF" stroke="#000000" stroke-width="10" stroke-miterlimit="10" d="M75.329,35.81
	c5.486,3.574,14.492,8.006,20.916,8.309"/>
</svg>
